<svg xmlns="http://www.w3.org/2000/svg" width="227.992" height="238.523" viewBox="0 0 227.992 238.523">
  <g id="Group_1" data-name="Group 1" transform="translate(-41.617 -315.477)">
    <path id="Path_1" data-name="Path 1" d="M269.745,256.4a163.775,163.775,0,0,0,23.588-4.692c10.9-2.925,21.621-6.387,31.609-11.821,3.862-2.1,7.551-4.469,10.286-8.069,4.394-5.784,3.28-11.217-3.088-14.657a30.257,30.257,0,0,0-12.311-3.279c-14.287-1.053-27.993,1.9-41.448,6.455-.909.308-1.464.588-1.452,1.784.024,2.531-1.507,3.909-3.812,4.536-1.405.383-2.794.836-4.209,1.175-1.114.266-2,.542-1.926,2.04a1.928,1.928,0,0,1-1.834,1.969,2.029,2.029,0,0,1-2.447-1.607c-.392-1.964-1.472-1.365-2.625-1.009-1.483.459-2.98.876-4.483,1.269-.947.247-1.771.1-2.026-1.047a1.615,1.615,0,0,1,1.248-2.014c1.193-.41,2.428-.7,3.61-1.134.911-.337,2.53-.022,2.577-1.16a11.794,11.794,0,0,0-1.126-4.23c-.246-.672-.8-.137-1.218,0-1.572.5-3.148,1-4.722,1.493-1.093.345-2.253.5-2.7-.833s.546-1.95,1.654-2.281c1.927-.577,3.865-1.118,5.848-1.689.04-.775-.586-1.512-.324-2.47.222-.816.194-1.614,1.152-2,.893-.363,1.88-.558,2.384.3,1.133,1.921,2.536,1.2,4,.708,1.287-.434,2.583-.845,3.888-1.22,2.129-.613,3.984-.089,4.928,1.971.781,1.7,1.67,1.318,3,.9,12.847-4.047,25.875-7.076,39.456-6.649,6.684.211,13.13,1.412,18.849,5.21,1.261.837,2.609.658,3.939.651,5.452-.03,10.886.022,16.155,1.731,6.325,2.051,10.575,6.789,9.393,12.755-1.048,5.295-.586,10.281-.452,15.467.134,5.215-3.024,9.227-6.617,12.695-7.608,7.34-16.609,12.6-25.864,17.422a101.668,101.668,0,0,1-21.955,8.584,6.876,6.876,0,0,0-3.4,2.138,3.27,3.27,0,0,1-4.725.382,3.357,3.357,0,0,1-1.259-4.177c.734-1.9,2.25-2.844,4.173-2.3a7.221,7.221,0,0,0,4.259-.311,128.527,128.527,0,0,0,42.521-22.087,23.538,23.538,0,0,0,7.832-9.73,9.866,9.866,0,0,0,.855-4.3c-.036-.57.017-1.25-.662-1.494-.575-.206-.842.355-1.157.68-8.07,8.31-17.89,13.976-28.128,18.953-14.014,6.812-28.6,11.736-44.222,12.884-5.057.371-10.1.3-14.995-1.342a15.157,15.157,0,0,1-7.853-5.34c-.65-.9-2-2.067-1.2-3.047a3.235,3.235,0,0,1,4.055-.3c11.159,9.835,23.558,5.565,35.476,2.894,16.454-3.689,31.475-11.146,45.44-20.633,4.236-2.878,8.248-6.268,11.012-10.8a21.62,21.62,0,0,0,1.95-3.942c1.606-4.516.027-8.233-4.3-10.158-4.377-1.948-9.052-2.068-13.727-2.118-1.145-.012-1.332.314-1.145,1.594.487,3.325,1.837,5.025,5.464,4.97,3.311-.051,6.417,1.292,9.424,2.765,1.6.783,1.861,1.623,1.161,3.23-.816,1.872-1.876,1.548-3.228.786-3.391-1.912-7.143-2.413-10.922-2.789-.894-.089-1.716-.136-2.227.887-3.147,6.3-8.567,10.175-14.539,13.135-20.1,9.96-41.281,15.939-63.7,17.055a23.854,23.854,0,0,1-8.907-1.2c-6.548-2.221-8.241-7.966-3.91-13.462,3.845-4.878,9-8.091,14.344-10.913,16.925-8.94,34.988-14.507,53.674-18.1a15.147,15.147,0,0,1,11.911,2.685c-3.946.632-7.913,1.149-11.833,1.917-18.964,3.712-37.264,9.418-54.235,18.979a35.538,35.538,0,0,0-10.074,7.932c-2.759,3.3-1.985,5.723,2.1,6.934a24.156,24.156,0,0,0,6.058.76,2.491,2.491,0,0,0,2.314-.934c5.517-7.289,13.4-11.282,21.223-15.184,14.349-7.158,29.267-12.7,45.288-14.583,1.285-.151,3.429-1.211,3.68.7.254,1.93-1.164,3.6-3.568,3.819a72.958,72.958,0,0,0-12.3,2.3c-15.59,4.156-30.368,10.241-43.891,19.248-1.212.807-2.333,1.758-3.47,2.676A20.713,20.713,0,0,0,269.745,256.4Z" transform="translate(-96.138 106.39)" fill="#08b8c1"/>
    <text id="Easy" transform="translate(41.617 437)" fill="#08b8c1" font-size="75" font-family="CenturyGothic, Century Gothic"><tspan x="0" y="0">Easy</tspan></text>
    <text id="Wires" transform="translate(46.617 512)" fill="#08b8c1" font-size="75" font-family="CenturyGothic, Century Gothic"><tspan x="0" y="0">Wires</tspan></text>
    <text id="WIRING_HARNESS" data-name="WIRING HARNESS" transform="translate(51.617 549)" fill="#08b8c1" font-size="22" font-family="CenturyGothic-Bold, Century Gothic" font-weight="700"><tspan x="0" y="0">WIRING HARNESS</tspan></text>
    <text id="TM" transform="translate(231.617 473)" fill="#08b8c1" font-size="18" font-family="FranklinGothic-Demi, Franklin Gothic" font-weight="300"><tspan x="0" y="0">TM</tspan></text>
  </g>
</svg>
